<?xml version="1.0" encoding="UTF-8" standalone="no"?>
<svg
   xmlns:dc="http://purl.org/dc/elements/1.1/"
   xmlns:cc="http://creativecommons.org/ns#"
   xmlns:rdf="http://www.w3.org/1999/02/22-rdf-syntax-ns#"
   xmlns:svg="http://www.w3.org/2000/svg"
   xmlns="http://www.w3.org/2000/svg"
   xmlns:sodipodi="http://sodipodi.sourceforge.net/DTD/sodipodi-0.dtd"
   xmlns:inkscape="http://www.inkscape.org/namespaces/inkscape"
   viewBox="0 0 1000 413.59999"
   version="1.1"
   id="svg1628"
   sodipodi:docname="BIDS_logo_black.svg"
   inkscape:version="1.0.2 (e86c870879, 2021-01-15)"
   width="1000"
   height="413.60001">
  <metadata
     id="metadata1632">
    <rdf:RDF>
      <cc:Work
         rdf:about="">
        <dc:format>image/svg+xml</dc:format>
        <dc:type
           rdf:resource="http://purl.org/dc/dcmitype/StillImage" />
        <dc:title>Ресурс 2</dc:title>
      </cc:Work>
    </rdf:RDF>
  </metadata>
  <sodipodi:namedview
     pagecolor="#ffffff"
     bordercolor="#666666"
     borderopacity="1"
     objecttolerance="10"
     gridtolerance="10"
     guidetolerance="10"
     inkscape:pageopacity="1"
     inkscape:pageshadow="2"
     inkscape:window-width="2560"
     inkscape:window-height="1403"
     id="namedview1630"
     showgrid="false"
     inkscape:zoom="1.8018578"
     inkscape:cx="482.84266"
     inkscape:cy="143.09816"
     inkscape:window-x="957"
     inkscape:window-y="0"
     inkscape:window-maximized="1"
     inkscape:current-layer="layer2"
     inkscape:pagecheckerboard="false" />
  <defs
     id="defs1546">
    <style
       id="style1544">.cls-1{fill:#1a1a1a;}</style>
  </defs>
  <title
     id="title1548">Ресурс 2</title>
  <g
     id="Слой_2"
     data-name="Слой 2" />
  <g
     inkscape:groupmode="layer"
     id="layer1"
     inkscape:label="01_brain"
     style="display:inline">
    <path
       class="cls-1"
       d="m 267,175.94 c 0.27615,-2.65409 -0.10151,-5.33544 -1.1,-7.81 -1.37,-3.24 -3.18,-7.09 -4.5,-9.81 2.73,-3.16 5.34,-7.95 4.88,-13.57 -0.3303,-4.06233 -1.56731,-7.9989 -3.62,-11.52 3,-5.72 8,-18.19 0.86,-29.78 -5.86,-9.54 -15.44,-12.29 -20.62,-13.07 -7.13,-1.08 -13.76,0.18 -17.3,3.28 -2.13566,1.8616 -3.95587,4.05666 -5.39,6.5 -5.87,-1.16 -13.91,-0.42 -19.49,7.26 -3.37307,4.64761 -4.80741,10.42441 -4,16.11 -9.11428,3.66918 -15.30542,12.2535 -15.91,22.06 -0.50054,4.31462 0.01,8.68652 1.49,12.77 -7.53,6.44 -16.25,19.64 -12.3,38.64 0.78835,4.33851 1.94931,8.60096 3.47,12.74 -2.53,4.26 -6.47,12.36 -5.25,20.78 1,6.71 4.89,12 7.48,14.9 -1,5.81 -2.09,18.51 6.18,27.49 6.82,7.37 16.23,8.61 22.51,8.46 2.54,7 9.24,20 24.54,21.85 2.0113,0.23993 4.03448,0.3668 6.06,0.38 16.88,0 27.45,-9.2 31.57,-17.82 2.24616,-4.78364 3.65008,-9.91897 4.15,-15.18 -0.21,-12.21 0,0 -0.21,-12.21 -0.1,-0.69 -0.15,-1.35 -0.27,-2 -1.52,-9.6 -3.86,-15.09 -6.34,-18.1 1.09373,-3.26349 1.93291,-6.60683 2.51,-10 L 266.82,216 v -0.09 c -0.94531,-6.55441 -3.0948,-12.87743 -6.34,-18.65 1.42078,-2.83866 2.19597,-5.95649 2.27,-9.13 z m -75.9,-29.47 c 0.7,-8.19 5.77,-11.76 9.27,-13.26 5.62,0 12.41,16 21.17,13.26 -5.32,-4.47 -8.76,-8.33 -13.89,-21.36 -0.09,-0.24 -2.46,-6.28 1.41,-11.62 3.39,-4.67 8.56,-3.52 10.71,-2.78 5.58,3.13 3,23.47 10.08,20.5 7.08,-2.97 17.58,-9 14.84,-15.34 -3.09,0.35 -9.61,12.13 -14.58,7.13 -4.17,-4.17 -3.22,-12 -2,-15.62 0.95375,-2.27053 2.40631,-4.29728 4.25,-5.93 0.63,-0.49 4.15,-1.67 9.39,-0.78 3.32,0.57 9.37,2.38 12.94,8.19 5.84,9.53 -2.33,21.49 -2.4,21.59 -1.34036,1.93941 -1.2175,4.53582 0.3,6.34 1.94574,2.54438 3.12835,5.58932 3.41,8.78 0.33,4.18 -3.94,7.49 -4,7.49 -2.63,0.44 -5.68,-5.6 -5.68,-5.6 0.41156,4.29605 1.8299,8.43461 4.14,12.08 0,0 3.67,7.35 5.88,12.59 0.92,2.19 0.08,5.47 -1.39,8.4 -0.005,-0.0264 -0.005,-0.0536 0,-0.08 -3.44,3.74 -8.61,4.6 -12.76,1.87 -4.15,-2.73 -3.81,-5.83 -5.83,-15.72 -0.26593,-1.30319 -0.59971,-2.59161 -1,-3.86 v 0 c 0,0 -2.79,-10.84 -1.36,-16 1,-3.53 3.39,-6.75 9.64,-6.18 -3.36,-5.85 -10.46,-4.76 -13.83,-0.24 -3,4.09 -2.92,10.21 -1.89,13.16 -7,-3.83 -12.06,1.94 -12.06,1.94 0,0 6.33,0.14 10.12,4.16 1.9,2 3,4.53 3.85,12 0.85,7.47 5.6,15.51 11.48,17.51 3.43179,1.1875 7.06631,1.67709 10.69,1.44 -0.41666,1.41017 -1.02573,2.75617 -1.81,4 -1.17021,1.75626 -1.17021,4.04374 0,5.8 3.2629,5.16514 5.40889,10.9559 6.3,17 0.86,6.5 -1.22,14 -2.59,18 -7.83,-1.29 -16.46,-11.92 -17.52,-19.37 -0.14322,-1.37094 -0.5115,-2.70888 -1.09,-3.96 h 0.14 c 4.87,-0.51 5.52,-14.13 5.52,-14.13 0,0 -6.55,11.54 -16.69,7.13 -5.75,-2.59 -7.18,-12.48 -7.75,-18.36 -0.55,-5.72 3.49,-13 3.71,-13.47 -0.38,0.23 -6.64,4.09 -8.59,7.29 -1.95,3.2 -5,4.18 -11.62,2.6 -6.62,-1.58 -10.61,-14.45 -6.95,-19.67 0.10169,-0.15497 0.19516,-0.3152 0.28,-0.48 0.0962,-0.10125 0.18639,-0.2081 0.27,-0.32 2.31,-1.76 12.12,3.12 18,-2.67 -13.62,0 -19.22,-4.35 -19.22,-4.35 -0.63,-1.12 -1.73,-3.94 -1.29,-9.1 z m 66.12,134.86 c -3.1,6.51 -12,13.47 -27,11.64 -11.62,-1.43 -15.81,-13.78 -16.77,-17.24 2.22648,-2.63695 4.26484,-5.42716 6.1,-8.35 -4.44003,1.46125 -8.96511,2.65013 -13.55,3.56 -3.81,0.31 -11.69,0.23 -16.55,-5 -4.45,-4.86 -4.45,-12.18 -3.88,-16.67 6.25,2.22 12.54,1.84 17.89,-3.87 -6.23,0.19 -13.64,-1.28 -19.49,-6.27 -1.5,-1.52 -4.88,-5.37 -5.52,-10 -0.56,-3.9 0.89,-8.21 2.49,-11.49 2.65,5.58 10.86,10.21 17.36,14.31 7.26,4.59 17.35,5.56 17.77,11.75 0.94,13.28 -17.51,17.91 -17.51,17.91 6.46,-0.06 16.54,-1.52 19.65,-5.1 3.84,-0.38 10,1.44 14.8,5.08 5.92,4.5 9.08,14.44 9.08,14.44 1.62,-6.49 -2.87,-14.91 -5.73,-19.7 -2.86,-4.79 -3,-14.15 -3,-14.15 0,0 -4.31,6.12 -3.73,11.2 -1.51,-1.81 -5.34,-2.34 -8.23,-2.49 0.98741,-2.85388 1.39207,-5.8769 1.19,-8.89 -0.17,-2.62 -3.37,-5.73 -7.6,-8.7 6.49,-1.85 10.89,-12.4 4.87,-14.67 0,2 -3.37,10.67 -17.28,7.47 -0.8,-0.4 -1.56,-0.76 -2.28,-1.11 -6.69877,-3.23527 -12.16868,-8.55431 -15.59,-15.16 -0.55,-1.22 -1,-2.36 -1.48,-3.58 -0.38,-0.82 -1.51,-3.62 -3.13,-11.4 -2.13,-10.28 0.46,-17.75 3.74,-22.74 -0.48,8.42 7.79,15.35 13.45,17.93 6.3,2.85 13.2,-1.59 13.62,2.15 0.42,3.74 2,4.72 0.57,8.89 -1.43,4.17 -10,6.16 -19.64,1.15 -0.29,9 21.22,9.6 24.52,5.73 1.16,3.74 9.33,3.74 13.07,6.75 3.74,3.01 4.87,16.34 9.31,19.94 4.44,3.6 13.78,7.6 18.65,13.34 0.14,0.15 0.25,0.28 0.36,0.42 1.05287,3.11795 1.80628,6.32913 2.25,9.59 1.43,8.66 0.48,16.51 -2.78,23.33 z"
       id="path1608-3"
       style="fill:#1a1a1a"
       sodipodi:nodetypes="ccccccccccccccccccccccccccccccccccccccscccccccccccccccscscccccccscccccccccccccsscccccccccccccccccccccccscccccccccccccssccsscccc" />
    <path
       class="cls-1"
       d="m 267,175.94 c 0.27615,-2.65409 -0.10151,-5.33544 -1.1,-7.81 -1.37,-3.24 -3.18,-7.09 -4.5,-9.81 2.73,-3.16 5.34,-7.95 4.88,-13.57 -0.3303,-4.06233 -1.56731,-7.9989 -3.62,-11.52 3,-5.72 8,-18.19 0.86,-29.78 -5.86,-9.54 -15.44,-12.29 -20.62,-13.07 -7.13,-1.08 -13.76,0.18 -17.3,3.28 -2.13566,1.8616 -3.95587,4.05666 -5.39,6.5 -5.87,-1.16 -13.91,-0.42 -19.49,7.26 -3.37307,4.64761 -4.80741,10.42441 -4,16.11 -9.11428,3.66918 -15.30542,12.2535 -15.91,22.06 -0.50054,4.31462 0.01,8.68652 1.49,12.77 -7.53,6.44 -16.25,19.64 -12.3,38.64 0.78835,4.33851 1.94931,8.60096 3.47,12.74 -2.53,4.26 -6.47,12.36 -5.25,20.78 1,6.71 4.89,12 7.48,14.9 -1,5.81 -2.09,18.51 6.18,27.49 6.82,7.37 16.23,8.61 22.51,8.46 2.54,7 9.24,20 24.54,21.85 2.0113,0.23993 4.03448,0.3668 6.06,0.38 16.88,0 27.45,-9.2 31.57,-17.82 2.24616,-4.78364 3.65008,-9.91897 4.15,-15.18 -0.21,-12.21 0,0 -0.21,-12.21 -0.1,-0.69 -0.15,-1.35 -0.27,-2 -1.52,-9.6 -3.86,-15.09 -6.34,-18.1 1.09373,-3.26349 1.93291,-6.60683 2.51,-10 L 266.82,216 v -0.09 c -0.94531,-6.55441 -3.0948,-12.87743 -6.34,-18.65 1.42078,-2.83866 2.19597,-5.95649 2.27,-9.13 z m -75.9,-29.47 c 0.7,-8.19 5.77,-11.76 9.27,-13.26 5.62,0 12.41,16 21.17,13.26 -5.32,-4.47 -8.76,-8.33 -13.89,-21.36 -0.09,-0.24 -2.46,-6.28 1.41,-11.62 3.39,-4.67 8.56,-3.52 10.71,-2.78 5.58,3.13 3,23.47 10.08,20.5 7.08,-2.97 17.58,-9 14.84,-15.34 -3.09,0.35 -9.61,12.13 -14.58,7.13 -4.17,-4.17 -3.22,-12 -2,-15.62 0.95375,-2.27053 2.40631,-4.29728 4.25,-5.93 0.63,-0.49 4.15,-1.67 9.39,-0.78 3.32,0.57 9.37,2.38 12.94,8.19 5.84,9.53 -2.33,21.49 -2.4,21.59 -1.34036,1.93941 -1.2175,4.53582 0.3,6.34 1.94574,2.54438 3.12835,5.58932 3.41,8.78 0.33,4.18 -3.94,7.49 -4,7.49 -2.63,0.44 -5.68,-5.6 -5.68,-5.6 0.41156,4.29605 1.8299,8.43461 4.14,12.08 0,0 3.67,7.35 5.88,12.59 0.92,2.19 0.08,5.47 -1.39,8.4 -0.005,-0.0264 -0.005,-0.0536 0,-0.08 -3.44,3.74 -8.61,4.6 -12.76,1.87 -4.15,-2.73 -3.81,-5.83 -5.83,-15.72 -0.26593,-1.30319 -0.59971,-2.59161 -1,-3.86 v 0 c 0,0 -2.79,-10.84 -1.36,-16 1,-3.53 3.39,-6.75 9.64,-6.18 -3.36,-5.85 -10.46,-4.76 -13.83,-0.24 -3,4.09 -2.92,10.21 -1.89,13.16 -7,-3.83 -12.06,1.94 -12.06,1.94 0,0 6.33,0.14 10.12,4.16 1.9,2 3,4.53 3.85,12 0.85,7.47 5.6,15.51 11.48,17.51 3.43179,1.1875 7.06631,1.67709 10.69,1.44 -0.41666,1.41017 -1.02573,2.75617 -1.81,4 -1.17021,1.75626 -1.17021,4.04374 0,5.8 3.2629,5.16514 5.40889,10.9559 6.3,17 0.86,6.5 -1.22,14 -2.59,18 -7.83,-1.29 -16.46,-11.92 -17.52,-19.37 -0.14322,-1.37094 -0.5115,-2.70888 -1.09,-3.96 h 0.14 c 4.87,-0.51 5.52,-14.13 5.52,-14.13 0,0 -6.55,11.54 -16.69,7.13 -5.75,-2.59 -7.18,-12.48 -7.75,-18.36 -0.55,-5.72 3.49,-13 3.71,-13.47 -0.38,0.23 -6.64,4.09 -8.59,7.29 -1.95,3.2 -5,4.18 -11.62,2.6 -6.62,-1.58 -10.61,-14.45 -6.95,-19.67 0.10169,-0.15497 0.19516,-0.3152 0.28,-0.48 0.0962,-0.10125 0.18639,-0.2081 0.27,-0.32 2.31,-1.76 12.12,3.12 18,-2.67 -13.62,0 -19.22,-4.35 -19.22,-4.35 -0.63,-1.12 -1.73,-3.94 -1.29,-9.1 z m 66.12,134.86 c -3.1,6.51 -12,13.47 -27,11.64 -11.62,-1.43 -15.81,-13.78 -16.77,-17.24 2.22648,-2.63695 4.26484,-5.42716 6.1,-8.35 -4.44003,1.46125 -8.96511,2.65013 -13.55,3.56 -3.81,0.31 -11.69,0.23 -16.55,-5 -4.45,-4.86 -4.45,-12.18 -3.88,-16.67 6.25,2.22 12.54,1.84 17.89,-3.87 -6.23,0.19 -13.64,-1.28 -19.49,-6.27 -1.5,-1.52 -4.88,-5.37 -5.52,-10 -0.56,-3.9 0.89,-8.21 2.49,-11.49 2.65,5.58 10.86,10.21 17.36,14.31 7.26,4.59 17.35,5.56 17.77,11.75 0.94,13.28 -17.51,17.91 -17.51,17.91 6.46,-0.06 16.54,-1.52 19.65,-5.1 3.84,-0.38 10,1.44 14.8,5.08 5.92,4.5 9.08,14.44 9.08,14.44 1.62,-6.49 -2.87,-14.91 -5.73,-19.7 -2.86,-4.79 -3,-14.15 -3,-14.15 0,0 -4.31,6.12 -3.73,11.2 -1.51,-1.81 -5.34,-2.34 -8.23,-2.49 0.98741,-2.85388 1.39207,-5.8769 1.19,-8.89 -0.17,-2.62 -3.37,-5.73 -7.6,-8.7 6.49,-1.85 10.89,-12.4 4.87,-14.67 0,2 -3.37,10.67 -17.28,7.47 -0.8,-0.4 -1.56,-0.76 -2.28,-1.11 -6.69877,-3.23527 -12.16868,-8.55431 -15.59,-15.16 -0.55,-1.22 -1,-2.36 -1.48,-3.58 -0.38,-0.82 -1.51,-3.62 -3.13,-11.4 -2.13,-10.28 0.46,-17.75 3.74,-22.74 -0.48,8.42 7.79,15.35 13.45,17.93 6.3,2.85 13.2,-1.59 13.62,2.15 0.42,3.74 2,4.72 0.57,8.89 -1.43,4.17 -10,6.16 -19.64,1.15 -0.29,9 21.22,9.6 24.52,5.73 1.16,3.74 9.33,3.74 13.07,6.75 3.74,3.01 4.87,16.34 9.31,19.94 4.44,3.6 13.78,7.6 18.65,13.34 0.14,0.15 0.25,0.28 0.36,0.42 1.05287,3.11795 1.80628,6.32913 2.25,9.59 1.43,8.66 0.48,16.51 -2.78,23.33 z"
       id="path2426"
       style="fill:#1a1a1a"
       sodipodi:nodetypes="ccccccccccccccccccccccccccccccccccccccscccccccccccccccscscccccccscccccccccccccsscccccccccccccccccccccccscccccccccccccssccsscccc" />
  </g>
  <g
     inkscape:groupmode="layer"
     id="layer2"
     inkscape:label="02_lines"
     style="display:inline">
    <path
       id="path1608"
       d="m 267,175.93945 c -0.45262,2.60413 -2.83249,7.67999 -3.84766,11.73047 0.12223,0.11132 0.0787,0.0702 0.23438,0.21094 0.0951,0.0851 0.19326,0.16611 0.28906,0.25 l 51.59375,0.0195 V 175.93945 Z M 266.4,228.29 c 12.6485,0.36446 34.60954,0.0804 48.86955,-0.001 V 216 h -48.44922 c -0.10534,4.96555 -0.18146,6.093 -0.42033,12.29 z m 2.45742,30.08891 c -0.0634,0.0399 1.71129,-0.0272 1.64258,0.0111 0.25088,7.24931 0.21094,12.20961 0.21094,12.20961 h 44.55859 v -12.20899 h -46.41015 z"
       sodipodi:nodetypes="ccccccccccccccccccc" />
  </g>
  <g
     inkscape:groupmode="layer"
     id="layer3"
     inkscape:label="03_files"
     style="display:inline">
    <g
       id="g2268"
       transform="translate(168,90)">
      <polygon
         class="cls-1"
         points="181.32,88.34 181.32,106.07 155.47,106.07 155.47,75.44 169.03,75.44 169.03,88.34 "
         id="polygon1612" />
      <polygon
         class="cls-1"
         points="181.32,130.25 181.32,147.99 155.47,147.99 155.47,117.35 169.03,117.35 169.03,130.25 "
         id="polygon1616" />
      <polygon
         class="cls-1"
         points="181.32,172.4 181.32,190.13 155.47,190.13 155.47,159.5 169.03,159.5 169.03,172.4 "
         id="polygon1620" />
    </g>
    <g
       id="Слой_1-2"
       data-name="Слой 1"
       transform="translate(168,90)">
      <polygon
         class="cls-1"
         points="172.16,75.44 181.32,85.18 181.32,85.21 172.16,85.21 "
         id="polygon1610" />
      <polygon
         class="cls-1"
         points="172.16,117.35 181.32,127.09 181.32,127.13 172.16,127.13 "
         id="polygon1614" />
      <polygon
         class="cls-1"
         points="172.16,159.5 181.32,169.24 181.32,169.28 172.16,169.28 "
         id="polygon1618" />
    </g>
  </g>
  <g
     inkscape:groupmode="layer"
     id="layer4"
     inkscape:label="04_directory"
     style="display:inline">
    <g
       id="g2396"
       transform="translate(168,90)">
      <path
         class="cls-1"
         d="m 142.7,29.61 h -14.88 l -0.61,-1.85 A 2.3,2.3 0 0 0 125,26.18 h -11.17 a 2.3,2.3 0 0 0 -2.19,1.6 l -0.59,1.83 h -1.83 a 3.65,3.65 0 0 0 -3.65,3.64 v 22.06 a 3.65,3.65 0 0 0 3.65,3.69 h 33.48 a 3.63,3.63 0 0 0 3.63,-3.64 V 33.25 a 3.63,3.63 0 0 0 -3.63,-3.64 z m -34.56,5.83 2.23,-3 h 31.13 l 1.65,3 z"
         id="path1622" />
      <polygon
         class="cls-1"
         points="159.85,51.11 149.43,51.11 149.43,38.9 172.06,38.9 172.06,68.3 159.85,68.3 "
         id="polygon1624" />
    </g>
  </g>
  <g
     inkscape:groupmode="layer"
     id="layer5"
     inkscape:label="05_BIDS"
     style="display:inline">
    <g
       id="g2205"
       transform="translate(168,90)">
      <path
         class="cls-1"
         d="m 302.11,102.84 -3,-1.43 2.54,-2.19 a 33.55,33.55 0 0 0 11.94,-26.37 c 0,-21 -14.08,-31.26 -43,-31.26 H 214.27 V 168 H 269 c 18.23,0 48.81,-4.76 48.81,-36.65 0.04,-14.15 -5.11,-23.46 -15.7,-28.51 z M 265.69,64.3 c 15.75,0 22.17,4.38 22.17,15.09 0,4 -1.92,13.2 -19.75,13.2 H 238.82 V 71 l -15.58,-6.7 z m 0.36,81 h -27.23 v -30.9 h 28.73 c 12.08,0 24.43,1.81 24.43,15.26 0.02,13.72 -12.46,15.6 -25.93,15.6 z"
         id="path1600" />
      <rect
         class="cls-1"
         x="341.84"
         y="41.59"
         width="24.57"
         height="126.38"
         id="rect1602" />
      <path
         class="cls-1"
         d="M 435.29,41.59 H 396 V 168 h 36.48 c 25.57,0 44.79,-6.08 57.13,-18.06 12.34,-11.98 18.75,-27.66 18.75,-46.81 0.01,-23 -9.48,-61.54 -73.07,-61.54 z m -0.38,103.67 H 420.59 V 71.54 L 403,64.3 h 18 v 0 h 13.94 c 31.83,0 48,13 48,38.8 -0.06,27.99 -16.2,42.16 -48.03,42.16 z"
         id="path1604" />
      <path
         class="cls-1"
         d="m 624,131.68 a 32,32 0 0 0 -5,-17.83 c -6.69,-9.77 -16.61,-13.71 -29.89,-18.2 -4.71,-1.6 -9.38,-2.85 -13.9,-4.05 -12.88,-3.43 -24,-6.39 -24,-15.77 0,-6.62 3.78,-14.52 21.8,-14.52 12.49,0 23.29,4.83 33,14.77 L 622.32,60.3 c -11.7,-14.59 -27.51,-21.69 -48.25,-21.69 -14.34,0 -26.12,3.78 -35,11.25 -8.88,7.47 -13.42,16 -13.42,26.34 0,22.27 16.77,30.47 34.88,36 4.42,1.49 8.53,2.61 12.5,3.7 7.53,2.07 14,3.85 19.08,7.21 4.08,2.72 6.42,6.66 6.42,10.81 0,4.15 -2.2,7.84 -6,10.4 -3.63,2.62 -9.06,3.91 -16.54,3.91 -15.63,0 -29.77,-7.74 -39.15,-21.35 L 519,141.74 c 10.47,18.6 31.4,29.22 57.74,29.22 13.68,0 24.76,-3.74 33.89,-11.44 8.86,-7.34 13.37,-16.7 13.37,-27.84 z"
         id="path1606" />
    </g>
  </g>
  <g
     inkscape:groupmode="layer"
     id="layer7"
     inkscape:label="05_BIDS 1" />
  <g
     inkscape:groupmode="layer"
     id="layer6"
     inkscape:label="06_BIDS_long"
     style="display:inline">
    <g
       id="g2237"
       transform="translate(168,90)">
      <path
         class="cls-1"
         d="m 222,189.76 a 4.05,4.05 0 0 0 2.51,-4 c 0,-2.77 -1.73,-4.42 -6.27,-4.42 H 211 V 199 h 7.05 c 4.44,0 7,-1.6 7,-5.08 A 3.9,3.9 0 0 0 222,189.76 Z m -8.61,-6.32 H 218 c 3,0 4.12,0.84 4.12,2.74 0,1.72 -1.47,2.75 -3.74,2.75 h -5 z m 4.7,13.43 h -4.7 V 191 h 4.95 q 4.43,0 4.42,2.82 c -0.05,2.12 -1.5,3.05 -4.76,3.05 z"
         id="path1550" />
      <path
         class="cls-1"
         d="m 243,199 -5.62,-7.34 a 5.1,5.1 0 0 0 4.34,-5 q 0,-5.34 -6.88,-5.33 h -6.78 V 199 h 2.31 v -6.95 H 235 l 5.27,6.95 h 2.8 z m -8.08,-9 h -4.55 v -6.5 h 4.4 c 3.06,0 4.59,1.07 4.59,3.18 0,2.11 -1.7,3.26 -4.42,3.26 z"
         id="path1552" />
      <path
         class="cls-1"
         d="m 252.58,181.25 h -1.83 L 243,199 v 0.07 h 2.34 l 2,-4.49 H 256 l 2,4.49 h 2.4 z m -4.44,11.28 3.47,-8.08 3.5,8.08 z"
         id="path1554" />
      <path
         class="cls-1"
         d="M 262.26,181.29 V 199 h 2.3 v -17.71 z"
         id="path1556" />
      <path
         class="cls-1"
         d="m 281,181.29 v 13.58 l -10.86,-13.58 h -1.81 V 199 h 2.23 V 185.5 L 281.4,199 h 1.81 v -17.71 z"
         id="path1558" />
      <path
         class="cls-1"
         d="M 294.55,181.29 V 199 h 2.3 v -17.71 z"
         id="path1560" />
      <path
         class="cls-1"
         d="m 316,181.29 -6.52,8.93 -6.74,-8.93 h -2.13 V 199 h 2.3 v -13.73 l 6.25,8.17 h 0.55 l 6.06,-8.17 V 199 h 2.3 v -17.71 z"
         id="path1562" />
      <path
         class="cls-1"
         d="m 329.58,181.25 h -1.83 L 320,199 h 2.36 l 2,-4.49 H 333 l 2,4.49 h 2.4 z m -4.44,11.28 3.47,-8.08 3.5,8.08 z"
         id="path1564" />
      <path
         class="cls-1"
         d="m 346.75,190 v 2.11 h 4.89 v 3.47 a 7,7 0 0 1 -4.59,1.52 6.93,6.93 0 0 1 -5,-1.88 6.63,6.63 0 0 1 -2,-5 6.89,6.89 0 0 1 1.88,-5 7.43,7.43 0 0 1 10,0.08 l 1.44,-1.51 q -2.16,-2.69 -6.68,-2.68 a 9.24,9.24 0 0 0 -6.42,15.7 9.31,9.31 0 0 0 6.7,2.51 9.73,9.73 0 0 0 6.84,-2.69 V 190 Z"
         id="path1566" />
      <path
         class="cls-1"
         d="M 356.63,181.29 V 199 h 2.31 v -17.71 z"
         id="path1568" />
      <path
         class="cls-1"
         d="m 375.36,181.29 v 13.58 L 364.5,181.29 h -1.81 V 199 h 2.23 V 185.5 L 375.8,199 h 1.79 v -17.71 z"
         id="path1570" />
      <path
         class="cls-1"
         d="m 389.44,190 v 2.11 h 4.89 v 3.47 a 7.65,7.65 0 0 1 -9.6,-0.36 6.66,6.66 0 0 1 -2,-5 6.85,6.85 0 0 1 1.89,-5 7.41,7.41 0 0 1 10,0.08 l 1.45,-1.51 q -2.17,-2.69 -6.69,-2.68 a 9.24,9.24 0 0 0 -6.42,15.7 9.31,9.31 0 0 0 6.7,2.51 9.73,9.73 0 0 0 6.84,-2.69 V 190 Z"
         id="path1572" />
      <path
         class="cls-1"
         d="m 412.39,181.29 h -5.46 V 199 h 5.22 c 3.31,0 5.81,-0.87 7.5,-2.57 a 8.82,8.82 0 0 0 2.54,-6.55 c 0,-4.61 -2.6,-8.59 -9.8,-8.59 z m -0.09,15.58 h -3.07 v -13.43 h 3.13 c 5.18,0 7.44,2.5 7.44,6.48 0,4.25 -2.43,6.95 -7.5,6.95 z"
         id="path1574" />
      <path
         class="cls-1"
         d="M 431.81,181.25 H 430 L 422.2,199 h 2.35 l 2,-4.49 h 8.69 l 2,4.49 h 2.4 z m -4.44,11.28 3.46,-8.08 3.51,8.08 z"
         id="path1576" />
      <path
         class="cls-1"
         d="m 437.2,181.29 v 2.15 h 6.15 V 199 h 2.31 v -15.6 h 6.19 v -2.15 z"
         id="path1578" />
      <path
         class="cls-1"
         d="m 459.05,181.25 h -1.83 L 449.45,199 h 2.34 l 2,-4.49 h 8.69 l 2,4.49 h 2.4 z m -4.44,11.28 3.47,-8.08 3.5,8.08 z"
         id="path1580" />
      <path
         class="cls-1"
         d="m 483.51,189.25 c -2.72,-0.74 -5.47,-1.16 -5.47,-3.37 a 2.13,2.13 0 0 1 1.3,-2 6.05,6.05 0 0 1 2.84,-0.63 6.79,6.79 0 0 1 5,1.89 l 1.5,-1.49 q -2,-2.6 -6.46,-2.59 a 7.49,7.49 0 0 0 -4.74,1.39 4.28,4.28 0 0 0 -1.83,3.49 c 0,6.53 10.95,4 10.95,8.38 0,1.69 -1.69,2.76 -3.82,2.76 a 7.6,7.6 0 0 1 -6,-2.86 l -1.5,1.62 a 7.46,7.46 0 0 0 3,2.4 9.23,9.23 0 0 0 4.29,1 7.26,7.26 0 0 0 4.61,-1.45 4.47,4.47 0 0 0 1.83,-3.67 C 489,191 486.25,190 483.51,189.25 Z"
         id="path1582" />
      <path
         class="cls-1"
         d="m 490,181.29 v 2.15 h 6.18 V 199 h 2.3 v -15.6 h 6.17 v -2.15 z"
         id="path1584" />
      <path
         class="cls-1"
         d="m 516,191.63 a 5.09,5.09 0 0 0 4.33,-5 c 0,-3.56 -2.27,-5.33 -6.86,-5.33 h -6.8 V 199 h 2.3 v -6.95 h 4.61 l 5.28,6.95 h 2.82 z m -2.46,-1.69 h -4.57 v -6.5 h 4.42 c 3.07,0 4.59,1.07 4.59,3.18 0,2.11 -1.78,3.32 -4.49,3.32 z"
         id="path1586" />
      <path
         class="cls-1"
         d="m 536.36,181.29 v 9.88 c 0,3.66 -1.74,5.89 -5,5.89 a 5.09,5.09 0 0 1 -3.85,-1.6 A 6,6 0 0 1 526,191 v -9.75 h -2.3 v 10.09 a 7.51,7.51 0 0 0 2.19,5.8 7.75,7.75 0 0 0 5.5,2 7.34,7.34 0 0 0 5.13,-1.94 7.42,7.42 0 0 0 2.13,-5.75 v -10.16 z"
         id="path1588" />
      <path
         class="cls-1"
         d="m 556.05,194.68 a 7.44,7.44 0 0 1 -10.42,0.48 6.75,6.75 0 0 1 -1.88,-5 7,7 0 0 1 1.77,-5 6.26,6.26 0 0 1 4.84,-1.9 7.26,7.26 0 0 1 5.27,2.17 l 1.49,-1.43 a 9.38,9.38 0 0 0 -13.3,-0.36 9.12,9.12 0 0 0 -2.49,6.51 8.57,8.57 0 0 0 9.16,9.11 8.48,8.48 0 0 0 6.88,-3.12 z"
         id="path1590" />
      <path
         class="cls-1"
         d="m 558.11,181.29 v 2.15 h 6.15 V 199 h 2.31 v -15.6 h 6.19 v -2.15 z"
         id="path1592" />
      <path
         class="cls-1"
         d="m 587.22,181.29 v 9.88 c 0,3.66 -1.71,5.89 -4.93,5.89 a 5.14,5.14 0 0 1 -3.87,-1.6 6,6 0 0 1 -1.54,-4.42 v -9.75 h -2.31 v 10.09 a 7.52,7.52 0 0 0 2.21,5.8 7.76,7.76 0 0 0 5.51,2 7.23,7.23 0 0 0 5.1,-1.94 7.35,7.35 0 0 0 2.14,-5.75 v -10.2 z"
         id="path1594" />
      <path
         class="cls-1"
         d="m 602.5,191.63 a 5.1,5.1 0 0 0 4.34,-5 c 0,-3.56 -2.28,-5.33 -6.88,-5.33 h -6.8 V 199 h 2.31 v -6.95 h 4.63 l 5.26,6.95 h 2.82 z m -2.5,-1.69 h -4.57 v -6.5 h 4.42 c 3.07,0 4.59,1.07 4.59,3.18 0,2.11 -1.69,3.32 -4.44,3.32 z"
         id="path1596" />
      <path
         class="cls-1"
         d="m 612.65,196.87 v -5.79 h 9.76 V 189 h -9.76 v -5.52 h 10.48 v -2.15 H 610.35 V 199 h 13 v -2.17 z"
         id="path1598" />
    </g>
  </g>
</svg>
